<?xml version="1.0" standalone="no"?>
<!DOCTYPE svg PUBLIC "-//W3C//DTD SVG 20010904//EN"
 "http://www.w3.org/TR/2001/REC-SVG-20010904/DTD/svg10.dtd">
<svg version="1.0" xmlns="http://www.w3.org/2000/svg"
 width="209.000000pt" height="54.000000pt" viewBox="0 0 209.000000 54.000000"
 preserveAspectRatio="xMidYMid meet">

<g transform="translate(0.000000,54.000000) scale(0.100000,-0.100000)"
fill="#000000" stroke="none">
<path d="M468 430 c-9 -6 -27 -24 -38 -41 l-22 -30 42 -55 c50 -66 49 -90 -2
-119 l-37 -21 75 -37 c79 -39 106 -41 124 -7 13 25 -64 277 -92 303 -23 20
-27 20 -50 7z"/>
<path d="M284 419 c-4 -7 -26 -73 -50 -147 -58 -185 -46 -206 84 -146 l77 35
-30 16 c-59 31 -60 62 -4 131 l40 52 -27 35 c-19 25 -34 35 -55 35 -15 0 -31
-5 -35 -11z"/>
</g>
</svg>
