<svg width="350.7350219726562px" height="155.36234741210936px" xmlns="http://www.w3.org/2000/svg" viewBox="74.63248901367189 -2.681173706054679 350.7350219726562 155.36234741210936" style="background: rgba(0, 0, 0, 0);" preserveAspectRatio="xMidYMid"><defs><linearGradient id="editing-gradow-gradient" x1="0" x2="1" y1="0.5" y2="0.5" gradientUnits="objectBoundingBox"><stop offset="0" stop-color="#f0f"></stop><stop offset="1" stop-color="#0ff"></stop></linearGradient><filter id="editing-gradow-filter" x="-100%" y="-100%" width="300%" height="300%"><feFlood flood-color="#fffcd9" result="flood"></feFlood><feComposite operator="in" in2="SourceAlpha" in="flood" result="shadow"></feComposite><feOffset dx="-4" dy="-4" in="SourceGraphic" result="offset-1"></feOffset><feOffset dx="4" dy="4" in="shadow" result="offset-2"></feOffset><feMerge><feMergeNode in="offset-2"></feMergeNode><feMergeNode in="offset-1"></feMergeNode></feMerge></filter></defs><g filter="url(#editing-gradow-filter)"><g transform="translate(128.8900030851364, 100.875)"><path d="M21.63 0L1.16-51.75L3.59-51.75L22.84-3.03L42.09-51.75L44.50-51.75L24.06 0L21.63 0ZM8.41-51.75L24.41-11.25L23.13-8.38L6-51.75L8.41-51.75ZM13.28-51.75L26.81-17.41L25.63-14.31L10.84-51.75L13.28-51.75ZM18.09-51.75L29.19-23.66L28-20.50L15.69-51.75L18.09-51.75ZM36.16 0L56.59-51.75L59.03-51.75L38.56 0L36.16 0ZM31.31 0L51.78-51.75L54.19-51.75L33.72 0L31.31 0ZM26.47 0L46.91-51.75L49.34-51.75L28.88 0L26.47 0ZM76.63 0L76.63-45L78.88-45L78.88 0L76.63 0ZM72.13 0L72.13-45L74.38-45L74.38 0L72.13 0ZM67.63 0L67.63-45L69.88-45L69.88 0L67.63 0ZM63.13 0L63.13-45L65.38-45L65.38 0L63.13 0ZM100.50-18L100.50 0L98.25 0L98.25-51.75L123.16-51.75L123.16-49.50L100.50-49.50L100.50-47.25L123.16-47.25L123.16-45L100.50-45L100.50-42.75L123.16-42.75L123.16-40.50L100.50-40.50L100.50-29.25L122.09-29.25L122.09-27L100.50-27L100.50-24.75L122.09-24.75L122.09-22.50L100.50-22.50L100.50-20.25L122.09-20.25L122.09-18L100.50-18ZM96-51.75L96 0L93.75 0L93.75-51.75L96-51.75ZM91.50-51.75L91.50 0L89.25 0L89.25-51.75L91.50-51.75ZM87-51.75L87 0L84.75 0L84.75-51.75L87-51.75ZM141.97 0L141.97-45L144.22-45L144.22 0L141.97 0ZM137.47 0L137.47-45L139.72-45L139.72 0L137.47 0ZM132.97 0L132.97-45L135.22-45L135.22 0L132.97 0ZM128.47 0L128.47-45L130.72-45L130.72 0L128.47 0ZM161.34-45L161.34 0L159.09 0L159.09-45L161.34-45ZM156.84-45L156.84 0L154.59 0L154.59-45L156.84-45ZM152.34-45L152.34 0L150.09 0L150.09-45L152.34-45ZM165.84-16.91L165.84-11.25L187.38-11.25L187.38-9L165.84-9L165.84-6.75L187.38-6.75L187.38-4.50L165.84-4.50L165.84-2.25L187.38-2.25L187.38 0L163.59 0L163.59-45L187.38-45L187.38-42.75L165.84-42.75L165.84-40.50L187.38-40.50L187.38-38.25L165.84-38.25L165.84-36L187.38-36L187.38-33.75L165.84-33.75L165.84-28.16L186.13-28.16L186.13-25.91L165.84-25.91L165.84-23.66L186.13-23.66L186.13-21.41L165.84-21.41L165.84-19.16L186.13-19.16L186.13-16.91L165.84-16.91ZM218.75-13.50L206.28-13.50L206.28-31.50L206.28-31.50Q206.28-31.50 218.75-31.50L218.75-31.50L218.75-31.50Q222.22-31.50 224.70-28.88L224.70-28.88L224.70-28.88Q227.19-26.25 227.19-22.56L227.19-22.56L227.19-22.56Q227.19-18.75 224.72-16.13L224.72-16.13L224.72-16.13Q222.25-13.50 218.75-13.50L218.75-13.50ZM208.53-29.25L208.53-15.75L218.75-15.75L218.75-15.75Q221.28-15.75 223.08-17.72L223.08-17.72L223.08-17.72Q224.88-19.69 224.88-22.56L224.88-22.56L224.88-22.56Q224.88-25.31 223.08-27.28L223.08-27.28L223.08-27.28Q221.28-29.25 218.75-29.25L218.75-29.25L208.53-29.25ZM204.03-33.75L204.03-11.25L218.75-11.25L218.75-11.25Q223.19-11.25 226.34-14.55L226.34-14.55L226.34-14.55Q229.50-17.84 229.50-22.56L229.50-22.56L229.50-22.56Q229.50-27.19 226.33-30.47L226.33-30.47L226.33-30.47Q223.16-33.75 218.75-33.75L218.75-33.75L204.03-33.75ZM218.75-9L201.78-9L201.78-36L218.75-36L218.75-36Q224.09-36 227.95-32.05L227.95-32.05L227.95-32.05Q231.81-28.09 231.81-22.56L231.81-22.56L231.81-22.56Q231.81-16.91 227.97-12.95L227.97-12.95L227.97-12.95Q224.13-9 218.75-9L218.75-9ZM199.53-38.25L199.53-6.75L218.75-6.75L218.75-6.75Q222.88-6.75 226.41-8.84L226.41-8.84L226.41-8.84Q229.94-10.94 232.03-14.59L232.03-14.59L232.03-14.59Q234.13-18.25 234.13-22.56L234.13-22.56L234.13-22.56Q234.13-26.78 232.03-30.41L232.03-30.41L232.03-30.41Q229.94-34.03 226.39-36.14L226.39-36.14L226.39-36.14Q222.84-38.25 218.75-38.25L218.75-38.25L199.53-38.25ZM218.75-4.50L197.28-4.50L197.28-40.50L218.75-40.50L218.75-40.50Q223.47-40.50 227.55-38.09L227.55-38.09L227.55-38.09Q231.63-35.69 234.03-31.55L234.03-31.55L234.03-31.55Q236.44-27.41 236.44-22.56L236.44-22.56L236.44-22.56Q236.44-17.66 234.03-13.48L234.03-13.48L234.03-13.48Q231.63-9.31 227.55-6.91L227.55-6.91L227.55-6.91Q223.47-4.50 218.75-4.50L218.75-4.50ZM195.03-42.75L195.03-2.25L218.75-2.25L218.75-2.25Q224.09-2.25 228.69-4.95L228.69-4.95L228.69-4.95Q233.28-7.66 236.02-12.34L236.02-12.34L236.02-12.34Q238.75-17.03 238.75-22.56L238.75-22.56L238.75-22.56Q238.75-28 236.02-32.67L236.02-32.67L236.02-32.67Q233.28-37.34 228.67-40.05L228.67-40.05L228.67-40.05Q224.06-42.75 218.75-42.75L218.75-42.75L195.03-42.75ZM218.75 0L218.75 0L192.78 0L192.78-45L218.75-45L218.75-45Q224.69-45 229.83-41.98L229.83-41.98L229.83-41.98Q234.97-38.97 238.02-33.80L238.02-33.80L238.02-33.80Q241.06-28.63 241.06-22.56L241.06-22.56L241.06-22.56Q241.06-17.97 239.27-13.78L239.27-13.78L239.27-13.78Q237.47-9.59 234.45-6.58L234.45-6.58L234.45-6.58Q231.44-3.56 227.31-1.78L227.31-1.78L227.31-1.78Q223.19 0 218.75 0Z" fill="url(#editing-gradow-gradient)"></path></g></g><style>text {
  font-size: 64px;
  font-family: Arial Black;
  dominant-baseline: central;
  text-anchor: middle;
}</style></svg>